# xmcd CD database file
#
# Track frame offsets:
#	150
#	33689
#	42605
#	55098
#	72015
#	82755
#	94349
#	109223
#	123523
#	138911
#	151838
#	166939
#	181311
#	191195
#	205400
#	220528
#	234250
#	246972
#	260587
#	280278
#
# Disc length: 3916 seconds
#
# Revision: 0
# Processed by: cddbd v1.5.2PL0 Copyright (c) Steve Scherf et al.
# Submitted via: CDex 1.70beta2
#
DISCID=200f4a14
DTITLE=Diversen - Kunst en Muziek Volume 2
DYEAR=1900
DGENRE=Jazz
TTITLE0=Caledonia - Woody Herman
TTITLE1=Perdido - Duke Ellington
TTITLE2=Dinah - Lionel Hampton
TTITLE3=Can't we be friends - Ellat Fitzgerald and Louis Armstrong
TTITLE4=Moten's swing - Count Basie
TTITLE5=The blues in your flat - Benny Goodman
TTITLE6=O lady be good - Django Reinhardt
TTITLE7=Sweet Lorraine - Nat King Cole
TTITLE8=Sugar foot stomp - Fletcher Henderson
TTITLE9=The jitney man - Earl Hines and his orchestra
TTITLE10=Creole love call - Duke Ellington
TTITLE11=I'm coming Virginia - Fletcher Henderson
TTITLE12=Love me or leave me - Frank Sinatra
TTITLE13=California here I come - Lionel Hampton
TTITLE14=Jumpin' at the wood side - Count Basie
TTITLE15=I can't give you anything but love - Louis Armstrong
TTITLE16=Dippermouth blues - Jimmy Dorsey
TTITLE17=King Porter stamp - Fletcher Henderson
TTITLE18=Poor butterfly - Sarah Vaughn
TTITLE19=Skyliner - Charlie Barnet
EXTD=
EXTT0=
EXTT1=
EXTT2=
EXTT3=
EXTT4=
EXTT5=
EXTT6=
EXTT7=
EXTT8=
EXTT9=
EXTT10=
EXTT11=
EXTT12=
EXTT13=
EXTT14=
EXTT15=
EXTT16=
EXTT17=
EXTT18=
EXTT19=
PLAYORDER=
